PathFileType	4	(X/Y/Z)	Kaydara																																																																																																																									
DataRate	CameraRate	NumFrames	NumMarkers	Units	OrigDataRate	OrigDataStartFrame	OrigNumFrames																																																																																																																					
30	30	4	41	mm	30	86	341																																																																																																																					
Frame#	Time	NABA_LFHD			NABA_RFHD			NABA_LBHD			NABA_RBHD			NABA_LFTShould			NABA_RFTShould			NABA_LRRShould			NABA_RRRShould			NABA_T10			NABA_STRN			NABA_TRUN			NABA_LSHO			NABA_LUPA			NABA_LELB			NABA_LFRM			NABA_LWRA			NABA_LWRB			NABA_LFIN			NABA_RSHO			NABA_RUPA			NABA_RELB			NABA_RFRM			NABA_RWRA			NABA_RWRB			NABA_RFIN			NABA_LFWT			NABA_RFWT			NABA_LBWT			NABA_RBWT			NABA_LTHI			NABA_LKNE			NABA_LSHN			NABA_LANK			NABA_LHEE			NABA_LTOE			NABA_RTHI			NABA_RKNE			NABA_RSHN			NABA_RANK			NABA_RHEE			NABA_RTOE		
		X1	Y1	Z1	X2	Y2	Z2	X3	Y3	Z3	X4	Y4	Z4	X5	Y5	Z5	X6	Y6	Z6	X7	Y7	Z7	X8	Y8	Z8	X9	Y9	Z9	X10	Y10	Z10	X11	Y11	Z11	X12	Y12	Z12	X13	Y13	Z13	X14	Y14	Z14	X15	Y15	Z15	X16	Y16	Z16	X17	Y17	Z17	X18	Y18	Z18	X19	Y19	Z19	X20	Y20	Z20	X21	Y21	Z21	X22	Y22	Z22	X23	Y23	Z23	X24	Y24	Z24	X25	Y25	Z25	X26	Y26	Z26	X27	Y27	Z27	X28	Y28	Z28	X29	Y29	Z29	X30	Y30	Z30	X31	Y31	Z31	X32	Y32	Z32	X33	Y33	Z33	X34	Y34	Z34	X35	Y35	Z35	X36	Y36	Z36	X37	Y37	Z37	X38	Y38	Z38	X39	Y39	Z39	X40	Y40	Z40	X41	Y41	Z41
																																																																																																																												
86	2.843	286.78308	1489.96735	-1619.43924	115.33508	1461.96564	-1614.18533	301.42504	1547.78748	-1730.46982	83.94702	1512.11365	-1696.44043	271.25412	1303.93295	-1775.30624	142.01288	1295.77637	-1779.319	273.32607	1376.96777	-1879.41528	127.86489	1368.73001	-1874.78561	211.26591	1222.10884	-1976.06644	209.62008	1239.73694	-1735.27145	211.78585	1136.49376	-1701.74377	364.8605	1338.08105	-1814.25156	429.54514	1130.53551	-1883.34213	438.91045	1025.2607	-1880.90866	429.00867	946.0804	-1911.44653	378.45829	793.66486	-1842.39777	448.97655	792.64565	-1851.45004	432.92679	732.72339	-1809.93469	59.07243	1326.93085	-1811.16196	0.36275	1141.3678	-1906.83395	-30.02751	1005.87303	-1877.6947	-33.13643	909.02847	-1874.98764	29.12158	782.58057	-1798.90335	-43.28255	770.39772	-1804.50928	-30.58207	732.19368	-1774.27078	336.10138	926.67526	-1800.53375	69.30638	932.49786	-1798.12805	284.40138	997.31453	-1966.39679	115.70687	1012.10403	-1971.08109	325.2462	645.30846	-1973.44345	317.77666	488.72005	-1939.49524	254.63194	291.32164	-1958.79807	277.2386	158.7534	-2059.88953	218.65845	125.88499	-2126.79321	251.01055	76.64468	-1954.00162	51.60869	642.54509	-1875.23941	72.72671	521.72443	-1719.25583	75.14507	352.75742	-1681.84677	56.6528	150.97155	-1675.8345	96.80924	82.75437	-1725.01434	83.31975	117.6775	-1546.78314
87	2.877	282.77054	1487.84515	-1606.09512	111.41949	1459.58313	-1600.08347	296.88179	1545.83572	-1717.16583	79.57338	1509.92188	-1682.13165	266.87756	1301.95602	-1762.10342	137.50635	1293.52631	-1765.00641	268.08899	1375.25497	-1866.20911	122.5191	1366.65665	-1860.49469	205.47525	1220.29823	-1962.39853	205.56595	1237.59773	-1721.66275	208.10793	1134.33105	-1688.13278	360.05054	1336.27335	-1801.57776	424.7702	1129.04373	-1871.48651	434.53114	1023.9621	-1869.96475	424.40113	944.67041	-1900.27069	374.3903	791.63162	-1831.47491	445.05245	790.97565	-1841.15219	429.41071	730.76057	-1799.84253	54.32585	1324.61258	-1796.38641	-4.38459	1139.10767	-1892.2551	-34.46018	1003.45551	-1863.31161	-37.29095	906.56181	-1860.73868	25.89622	780.18105	-1784.96719	-46.62022	767.89566	-1790.59265	-33.65102	729.52812	-1760.08286	332.25075	924.66606	-1787.89154	65.31078	930.30884	-1783.24051	279.07974	995.62836	-1953.28476	110.01524	1010.37376	-1956.40671	321.37337	644.87686	-1963.51425	314.85437	487.86266	-1931.26602	252.58339	290.50762	-1954.16611	276.56395	159.86288	-2057.58362	218.58688	128.05464	-2125.53223	250.78867	76.61619	-1953.81393	49.35276	640.39803	-1864.20181	70.07285	516.27708	-1710.98572	73.09671	347.7401	-1676.74408	56.14316	146.14122	-1673.74054	98.10403	80.15679	-1722.995	81.3987	108.57661	-1543.81058
88	2.91	278.22018	1486.29974	-1590.87875	107.04855	1457.72644	-1584.18716	291.64362	1545.41595	-1701.54648	74.6892	1508.77762	-1665.48935	262.22641	1301.2735	-1747.80411	132.7122	1292.7684	-1749.65271	262.43097	1375.28061	-1851.97342	116.7448	1366.20346	-1844.83185	199.78794	1220.59158	-1947.97318	201.33053	1236.4856	-1707.52747	204.43663	1133.05771	-1673.694	354.92352	1335.54947	-1788.20862	419.16447	1127.99698	-1858.75488	429.05453	1022.87544	-1857.2731	419.02264	943.97415	-1887.97287	370.23674	790.41756	-1820.31891	440.75073	790.04623	-1830.04532	425.77644	729.60709	-1789.09851	49.36932	1323.0368	-1780.26093	-9.84559	1137.29958	-1876.13663	-39.2123	1001.5995	-1846.97647	-42.17806	905.07332	-1844.75021	21.73528	778.31482	-1770.32776	-50.67611	765.81039	-1775.09659	-37.48999	727.20932	-1745.20554	327.51778	923.50204	-1774.27856	60.78788	930.26962	-1769.496	273.58109	995.02563	-1939.6109	104.84767	1011.43982	-1942.08786	316.71432	645.0399	-1951.60339	310.89087	487.88921	-1920.95306	249.91137	290.64167	-1948.20557	276.0784	162.4061	-2054.38751	219.09533	131.90475	-2123.59177	250.64194	76.62927	-1953.23746	46.21378	641.7952	-1853.47504	68.02396	515.67608	-1700.95413	72.60716	347.34161	-1668.22754	57.03723	145.32201	-1667.3526	99.85956	81.6873	-1719.00421	80.42714	103.0604	-1538.67035
89	2.943	272.97436	1485.5249	-1574.01459	101.83797	1456.29166	-1567.15485	285.92724	1545.69656	-1684.08325	69.17795	1507.99133	-1647.99042	257.13943	1301.51459	-1732.16248	127.55504	1292.61765	-1733.65524	256.87159	1376.35681	-1835.65933	111.34057	1367.14874	-1828.22281	194.25045	1222.30469	-1932.81387	196.5299	1236.70685	-1691.5358	200.00448	1132.86629	-1658.86566	349.69837	1336.43784	-1772.84454	413.07968	1129.07578	-1845.03418	423.20305	1024.26147	-1843.90427	412.91729	945.54192	-1875.03372	365.03021	791.12198	-1807.68982	435.7909	791.15784	-1818.27377	421.61144	730.53085	-1777.68951	44.59969	1323.5408	-1763.63052	-15.57571	1137.98828	-1858.52814	-44.3044	1002.34879	-1828.92288	-47.86031	906.10451	-1827.08481	17.34944	778.45688	-1755.73074	-55.38207	766.51627	-1758.06503	-41.86194	727.27112	-1729.10721	321.40038	923.76663	-1759.99939	54.93558	932.66121	-1756.03638	268.60405	996.39275	-1925.12024	100.46694	1013.70125	-1928.69583	312.13072	646.14243	-1938.53348	307.49866	489.01394	-1908.67661	248.23425	291.66893	-1940.90286	276.04359	166.66576	-2050.19913	219.61939	137.85655	-2120.50919	250.54476	76.58179	-1952.10403	41.22683	643.72292	-1839.7821	65.29561	516.58051	-1687.97821	70.78817	346.62254	-1659.24454	56.68402	144.55043	-1663.11951	99.59411	82.82171	-1716.75476	81.8779	98.0335	-1535.37506
